<?xml version="1.0" encoding="utf-8"?>
<!-- Generator: Adobe Illustrator 26.3.1, SVG Export Plug-In . SVG Version: 6.00 Build 0)  -->
<svg version="1.1" id="Layer_1" xmlns="http://www.w3.org/2000/svg" xmlns:xlink="http://www.w3.org/1999/xlink" x="0px" y="0px"
	 viewBox="0 0 360 500" style="enable-background:new 0 0 360 500;" xml:space="preserve">
<style type="text/css">
	.st0{fill:#3B2F31;stroke:#271B80;stroke-width:4;stroke-miterlimit:10;}
	.st1{fill:#5061C5;stroke:#271B80;stroke-width:4;stroke-miterlimit:10;}
	.st2{fill:#F3D408;stroke:#271B80;stroke-width:4;stroke-miterlimit:10;}
	.st3{fill:#FDFDFD;stroke:#271B80;stroke-width:4;stroke-miterlimit:10;}
</style>
<g>
	<path class="st0" d="M93.88,494.5c-0.1-1.33-0.29-2.66-0.29-3.98c-0.02-29.83,0.05-59.66-0.1-89.49c-0.02-3.7,0.91-4.73,4.66-4.7
		c21.31,0.19,42.62,0.09,63.93,0.09c1.61,0,3.22,0,4.83,0c0.07-0.32,0.13-0.63,0.2-0.95c-6.83-2.19-13.61-4.53-20.5-6.5
		c-3.02-0.86-3.99-1.88-3.06-5.2c1.91-6.86,3.26-13.88,5.03-21.66c4.46,4.22,8.48,8.02,12.81,12.12c0.94-2.85-0.96-3.89-1.9-5.13
		c-35.27-46.74-70.58-93.44-105.9-140.14c-14.29-18.89-28.57-37.79-42.88-56.67c-0.94-1.24-1.49-3.07-3.61-2.86
		c0-8.36,0-16.72,0-25.07c2.25-6.13,2.34-12.7,3.97-18.97c11.04-42.53,36.6-74.03,73.66-96.52c28.08-17.04,58.79-25.59,91.62-26.2
		c53.63-1.01,100.32,16.01,138.11,54.76c23.98,24.58,37.93,54.23,41.27,88.56c0.66,6.8,0.26,13.71,0.33,20.57
		c0.01,1.02-0.13,1.87-0.86,2.83c-50.26,66.25-100.46,132.54-150.62,198.87c-1.07,1.41-3.78,3.26-2.34,4.6
		c1.63,1.52,2.95-1.51,4.31-2.6c2.07-1.66,3.91-3.63,6.23-5.82c1.96,7.67,3.68,14.91,5.7,22.05c0.74,2.61-0.98,2.68-2.43,3.13
		c-6.33,1.95-12.68,3.84-19.48,5.89c1.98,1.36,3.61,0.85,5.12,0.86c21.62,0.04,43.23,0.08,64.85-0.03c2.86-0.01,3.76,0.67,3.75,3.69
		c-0.14,31.48-0.12,62.96-0.14,94.45C211.38,494.5,152.63,494.5,93.88,494.5z M181.75,492.72c27.42,0,54.84-0.06,82.25,0.08
		c3.52,0.02,4.48-0.93,4.46-4.46c-0.14-28.34-0.15-56.68,0.01-85.01c0.02-3.84-0.84-5.06-4.89-5.04c-30.75,0.18-61.49,0.1-92.24,0.1
		c-23.69,0-47.39,0.07-71.08-0.07c-3.54-0.02-4.92,0.71-4.9,4.62c0.16,28.49,0.16,56.97,0,85.46c-0.02,3.68,1.19,4.41,4.58,4.39
		C127.21,492.67,154.48,492.72,181.75,492.72z M182.54,390.42c1.82-1.17,1.94-2.76,2.45-4.05c28.09-70.47,56.15-140.95,84.2-211.43
		c3-7.53,3.02-7.59-3.2-12.63c-10.45-8.48-21.71-15.25-35.57-16.19c-17.71-1.2-31.41,7.3-44.15,18.26
		c-2.69,2.32-3.83,4.74-3.82,8.39c0.11,71.18,0.08,142.37,0.08,213.55C182.54,387.58,182.54,388.83,182.54,390.42z M179.93,390.08
		c0.28-0.02,0.55-0.04,0.83-0.05c0-1.48,0-2.97,0-4.45c0-70.85-0.03-141.7,0.08-212.54c0.01-3.74-0.97-6.37-3.87-8.82
		c-11.7-9.88-24.11-18-40.18-18.17c-16.4-0.17-29.16,7.92-41.3,17.77c-3.31,2.69-3.88,4.9-2.27,8.9
		c21.31,53.12,42.44,106.32,63.62,159.49C164.51,351.5,172.23,370.79,179.93,390.08z M274.03,165.36
		c26.61-25.07,53.14-28.78,80.38-0.23c0-3.1,0-4.57,0-6.04c0.01-36.53-12.8-68.25-36.67-95.46C291,33.15,256.93,15.32,217.43,7.58
		c-9.52-1.86-19.18-3.25-29.42-2.92c1.58,2.02,3.43,2.66,5.04,3.61c28.04,16.44,48.46,39.57,61.28,69.49
		C266.2,105.43,270.62,134.75,274.03,165.36z M175.58,4.82c-25.94,0.28-50.63,5.83-73.86,17c-42.19,20.28-72.55,51.44-86.89,96.8
		c-4.69,14.84-6.55,30.11-5.79,45.99c28.91-28.63,53.98-23.49,80.25,0.17c0.34-1.85,0.78-3.54,0.94-5.25
		c1.78-19.1,4.88-37.98,10-56.47c8.73-31.51,23.85-59.15,49.43-80.3C157.77,16.05,166.55,10.33,175.58,4.82z M175.85,387.76
		c1.02-2.11-0.21-3.69-0.84-5.27c-27.77-69.8-55.59-139.57-83.35-209.37c-1.47-3.69-3.53-6.76-6.57-9.31
		c-9.57-8.03-19.63-15.2-32.47-16.7c-16.49-1.92-28.8,6.23-40.08,16.97c-2.77,2.64-2.71,4.24-0.44,7.23
		c36.42,47.96,72.71,96.03,109.03,144.07C139.34,339.49,157.57,363.59,175.85,387.76z M186.97,386.17c2.66-0.04,3.3-1.98,4.29-3.28
		c23.94-31.61,47.83-63.25,71.74-94.89c29.57-39.13,59.11-78.27,88.79-117.31c2.04-2.69,1.8-4.12-0.51-6.21
		c-3.77-3.4-7.48-6.83-11.7-9.68c-10.23-6.92-21.3-9.81-33.5-6.83c-11.02,2.69-19.91,9.14-28.33,16.38
		c-2.66,2.29-4.49,5.03-5.77,8.27c-5.63,14.25-11.32,28.48-16.99,42.71C232.37,272.12,209.76,328.92,186.97,386.17z M271.9,164.89
		c-2.26-21.54-5.26-42.15-10.88-62.29c-11.67-41.82-35.05-74.57-73.83-95.36c-4.61-2.47-4.61-2.5-4.61,2.54
		c0,50.27,0,100.54,0,150.82c0,1.28,0,2.55,0,4.64c13.16-11.61,26.58-20.93,44.27-21.03C244.74,144.11,258.43,153.36,271.9,164.89z
		 M91.68,164.94c30.32-27.62,59.62-27.5,88.6-0.04c0.23-1.06,0.34-1.34,0.34-1.62c0.01-51.48-0.01-102.96,0.08-154.44
		c0.01-3.93-1.33-3.32-3.81-1.98c-20.38,11.02-37.71,25.5-51.02,44.61c-14.31,20.54-22.45,43.58-27.53,67.86
		C95.28,133.9,93.03,148.6,91.68,164.94z M149.63,365.53c-1.43,6.33-2.51,12.03-4.07,17.59c-0.76,2.71-0.05,3.63,2.46,4.39
		c10.39,3.14,20.73,6.45,31.07,9.74c1.3,0.41,2.59,0.86,3.92,0.46c10.53-3.18,21.04-6.43,31.59-9.57c1.7-0.51,2.11-1.41,1.7-2.95
		c-1.47-5.54-2.94-11.09-4.57-17.23c-9.28,8.68-18.19,16.77-26.78,25.21c-2.72,2.67-4.11,2.38-6.66-0.14
		C169.1,383.92,159.63,375.08,149.63,365.53z M200.22,375.98c-0.1-0.19-0.21-0.38-0.32-0.58c-0.1,0.1-0.3,0.22-0.28,0.29
		c0.05,0.21,0.18,0.4,0.28,0.6C200,376.2,200.1,376.1,200.22,375.98z"/>
	<path class="st1" d="M181.75,492.72c-27.27,0-54.54-0.05-81.81,0.07c-3.39,0.02-4.6-0.72-4.58-4.39c0.16-28.49,0.16-56.97,0-85.46
		c-0.02-3.91,1.36-4.64,4.9-4.62c23.69,0.14,47.38,0.07,71.08,0.07c30.75,0,61.49,0.08,92.24-0.1c4.05-0.02,4.91,1.19,4.89,5.04
		c-0.16,28.34-0.15,56.68-0.01,85.01c0.02,3.53-0.94,4.48-4.46,4.46C236.59,492.66,209.17,492.72,181.75,492.72z"/>
	<path class="st1" d="M274.03,165.36c-3.41-30.61-7.83-59.93-19.69-87.61c-12.82-29.92-33.24-53.04-61.28-69.49
		c-1.61-0.95-3.46-1.59-5.04-3.61c10.24-0.33,19.9,1.06,29.42,2.92c39.5,7.74,73.57,25.57,100.31,56.05
		c23.87,27.21,36.68,58.93,36.67,95.46c0,1.47,0,2.94,0,6.04C327.17,136.59,300.64,140.29,274.03,165.36z"/>
	<path class="st2" d="M175.58,4.82c-9.02,5.51-17.81,11.23-25.92,17.94c-25.58,21.16-40.7,48.8-49.43,80.3
		c-5.12,18.49-8.22,37.37-10,56.47c-0.16,1.71-0.6,3.4-0.94,5.25c-26.27-23.66-51.34-28.81-80.25-0.17
		c-0.76-15.88,1.1-31.15,5.79-45.99c14.34-45.37,44.7-76.53,86.89-96.8C124.95,10.65,149.64,5.1,175.58,4.82z"/>
	<path class="st2" d="M271.9,164.89c-13.47-11.54-27.16-20.78-45.05-20.68c-17.68,0.09-31.11,9.42-44.27,21.03c0-2.09,0-3.36,0-4.64
		c0-50.27,0-100.54,0-150.82c0-5.04-0.01-5.01,4.61-2.54c38.78,20.8,62.16,53.54,73.83,95.36
		C266.64,122.74,269.64,143.35,271.9,164.89z"/>
	<path class="st1" d="M91.68,164.94c1.35-16.34,3.6-31.04,6.65-45.61c5.08-24.28,13.22-47.32,27.53-67.86
		c13.32-19.11,30.65-33.59,51.02-44.61c2.48-1.34,3.82-1.95,3.81,1.98c-0.09,51.48-0.07,102.96-0.08,154.44
		c0,0.28-0.11,0.56-0.34,1.62C151.3,137.44,122,137.32,91.68,164.94z"/>
	<path class="st2" d="M149.63,365.53c10,9.55,19.47,18.38,28.67,27.5c2.55,2.53,3.94,2.81,6.66,0.14
		c8.59-8.43,17.5-16.53,26.78-25.21c1.63,6.14,3.11,11.68,4.57,17.23c0.41,1.54,0,2.44-1.7,2.95c-10.54,3.14-21.05,6.39-31.59,9.57
		c-1.33,0.4-2.62-0.05-3.92-0.46c-10.34-3.29-20.68-6.6-31.07-9.74c-2.52-0.76-3.22-1.69-2.46-4.39
		C147.12,377.56,148.2,371.87,149.63,365.53z"/>
	<path class="st3" d="M200.22,375.98c-0.12,0.12-0.22,0.22-0.32,0.32c-0.1-0.2-0.23-0.39-0.28-0.6c-0.02-0.07,0.18-0.19,0.28-0.29
		C200.01,375.59,200.12,375.79,200.22,375.98z"/>
</g>
</svg>
